<svg xmlns="http://www.w3.org/2000/svg" xmlns:xlink="http://www.w3.org/1999/xlink" width="170" height="170" viewBox="0 0 170 170"><defs><style>.a,.d{fill:none;}.b{clip-path:url(#a);}.c{fill:#263f5f;}.d{stroke:#fff;stroke-linecap:round;stroke-linejoin:round;stroke-width:3px;}.e{filter:url(#b);}</style><clipPath id="a"><rect class="a" width="170" height="170"/></clipPath><filter id="b" x="0" y="0" width="195" height="195" filterUnits="userSpaceOnUse"><feOffset dx="10" dy="8" input="SourceAlpha"/><feGaussianBlur stdDeviation="17.5" result="c"/><feFlood flood-opacity="0.078"/><feComposite operator="in" in2="c"/><feComposite in="SourceGraphic"/></filter></defs><g class="b"><g transform="translate(42.5 44.5)"><g class="e" transform="matrix(1, 0, 0, 1, -42.5, -44.5)"><circle class="c" cx="45" cy="45" r="45" transform="translate(42.5 44.5)"/></g><g transform="translate(29 32)"><path class="d" d="M5.3,4H31.7A3.31,3.31,0,0,1,35,7.3V27.1a3.31,3.31,0,0,1-3.3,3.3H5.3A3.31,3.31,0,0,1,2,27.1V7.3A3.31,3.31,0,0,1,5.3,4Z" transform="translate(-2 -4)"/><path class="d" d="M35,6,18.5,17.55,2,6" transform="translate(-2 -2.7)"/></g></g></g></svg>