<svg xmlns="http://www.w3.org/2000/svg" xmlns:xlink="http://www.w3.org/1999/xlink" width="170" height="170" viewBox="0 0 170 170"><defs><style>.a,.d{fill:none;}.b{clip-path:url(#a);}.c{fill:#263f5f;}.d{stroke:#fff;stroke-linecap:round;stroke-linejoin:round;stroke-width:3px;}.e{filter:url(#b);}</style><clipPath id="a"><rect class="a" width="170" height="170"/></clipPath><filter id="b" x="0" y="0" width="195" height="195" filterUnits="userSpaceOnUse"><feOffset dx="10" dy="8" input="SourceAlpha"/><feGaussianBlur stdDeviation="17.5" result="c"/><feFlood flood-opacity="0.078"/><feComposite operator="in" in2="c"/><feComposite in="SourceGraphic"/></filter></defs><g class="b"><g transform="translate(-1051.5 -658.5)"><g class="e" transform="matrix(1, 0, 0, 1, 1051.5, 658.5)"><circle class="c" cx="45" cy="45" r="45" transform="translate(42.5 44.5)"/></g><path class="d" d="M13.846,31.48C5.385,34.019,5.385,27.249,2,26.4M25.692,36.557V30.008A5.7,5.7,0,0,0,24.1,25.591C29.415,25,35,22.985,35,13.745A9.205,9.205,0,0,0,32.463,7.4a8.58,8.58,0,0,0-.153-6.381s-2-.592-6.617,2.5a22.643,22.643,0,0,0-11.846,0c-4.62-3.1-6.617-2.5-6.617-2.5A8.58,8.58,0,0,0,7.077,7.4a9.206,9.206,0,0,0-2.538,6.4c0,9.172,5.585,11.186,10.9,11.846a5.7,5.7,0,0,0-1.591,4.366v6.549" transform="translate(1121 729.027)"/></g></g></svg>