<svg xmlns="http://www.w3.org/2000/svg" xmlns:xlink="http://www.w3.org/1999/xlink" width="170" height="170" viewBox="0 0 170 170"><defs><style>.a,.d{fill:none;}.b{clip-path:url(#a);}.c{fill:#263f5f;}.d{stroke:#fff;stroke-linecap:round;stroke-linejoin:round;stroke-width:3px;}.e{filter:url(#b);}</style><clipPath id="a"><rect class="a" width="170" height="170"/></clipPath><filter id="b" x="0" y="0" width="195" height="195" filterUnits="userSpaceOnUse"><feOffset dx="10" dy="8" input="SourceAlpha"/><feGaussianBlur stdDeviation="17.5" result="c"/><feFlood flood-opacity="0.078"/><feComposite operator="in" in2="c"/><feComposite in="SourceGraphic"/></filter></defs><g class="b"><g transform="translate(-879.5 -658.5)"><g class="e" transform="matrix(1, 0, 0, 1, 879.5, 658.5)"><circle class="c" cx="45" cy="45" r="45" transform="translate(42.5 44.5)"/></g><g transform="translate(949 730)"><path class="d" d="M19.9,8a9.9,9.9,0,0,1,9.9,9.9V29.45H23.2V17.9a3.3,3.3,0,0,0-6.6,0V29.45H10V17.9A9.9,9.9,0,0,1,19.9,8Z" transform="translate(5.2 3.9)"/><rect class="d" width="6.6" height="19.8" transform="translate(2 13.55)"/><circle class="d" cx="3.3" cy="3.3" r="3.3" transform="translate(2 2)"/></g></g></g></svg>